<?xml version="1.0" standalone="no"?>
<svg xmlns:xlink="http://www.w3.org/1999/xlink" id="wave" style="transform:rotate(0deg); transition: 0.3s" viewBox="0 0 1440 160" version="1.1" xmlns="http://www.w3.org/2000/svg"><defs><linearGradient id="sw-gradient-0" x1="0" x2="0" y1="1" y2="0"><stop stop-color="rgba(255, 255, 255, 1)" offset="0%"/><stop stop-color="rgba(135, 204, 15, 1)" offset="100%"/></linearGradient></defs><path style="transform:translate(0, 0px); opacity:1" fill="url(#sw-gradient-0)" d="M0,48L30,48C60,48,120,48,180,40C240,32,300,16,360,26.7C420,37,480,75,540,96C600,117,660,123,720,109.3C780,96,840,64,900,66.7C960,69,1020,107,1080,104C1140,101,1200,59,1260,34.7C1320,11,1380,5,1440,13.3C1500,21,1560,43,1620,50.7C1680,59,1740,53,1800,42.7C1860,32,1920,16,1980,21.3C2040,27,2100,53,2160,64C2220,75,2280,69,2340,72C2400,75,2460,85,2520,82.7C2580,80,2640,64,2700,53.3C2760,43,2820,37,2880,53.3C2940,69,3000,107,3060,120C3120,133,3180,123,3240,106.7C3300,91,3360,69,3420,61.3C3480,53,3540,59,3600,56C3660,53,3720,43,3780,32C3840,21,3900,11,3960,24C4020,37,4080,75,4140,77.3C4200,80,4260,48,4290,32L4320,16L4320,160L4290,160C4260,160,4200,160,4140,160C4080,160,4020,160,3960,160C3900,160,3840,160,3780,160C3720,160,3660,160,3600,160C3540,160,3480,160,3420,160C3360,160,3300,160,3240,160C3180,160,3120,160,3060,160C3000,160,2940,160,2880,160C2820,160,2760,160,2700,160C2640,160,2580,160,2520,160C2460,160,2400,160,2340,160C2280,160,2220,160,2160,160C2100,160,2040,160,1980,160C1920,160,1860,160,1800,160C1740,160,1680,160,1620,160C1560,160,1500,160,1440,160C1380,160,1320,160,1260,160C1200,160,1140,160,1080,160C1020,160,960,160,900,160C840,160,780,160,720,160C660,160,600,160,540,160C480,160,420,160,360,160C300,160,240,160,180,160C120,160,60,160,30,160L0,160Z"/></svg>