<?xml version="1.0" standalone="no"?><svg xmlns="http://www.w3.org/2000/svg" viewBox="0 0 1440 320"><path fill="#2e8b57" fill-opacity="1" d="M0,192L24,186.7C48,181,96,171,144,144C192,117,240,75,288,80C336,85,384,139,432,149.3C480,160,528,128,576,128C624,128,672,160,720,192C768,224,816,256,864,261.3C912,267,960,245,1008,240C1056,235,1104,245,1152,229.3C1200,213,1248,171,1296,144C1344,117,1392,107,1416,101.3L1440,96L1440,320L1416,320C1392,320,1344,320,1296,320C1248,320,1200,320,1152,320C1104,320,1056,320,1008,320C960,320,912,320,864,320C816,320,768,320,720,320C672,320,624,320,576,320C528,320,480,320,432,320C384,320,336,320,288,320C240,320,192,320,144,320C96,320,48,320,24,320L0,320Z"></path></svg>