<?xml version="1.0" standalone="no"?>
<svg xmlns:xlink="http://www.w3.org/1999/xlink" id="wave" style="transform:rotate(180deg); transition: 0.3s" viewBox="0 0 1440 270" version="1.1" xmlns="http://www.w3.org/2000/svg"><defs><linearGradient id="sw-gradient-0" x1="0" x2="0" y1="1" y2="0"><stop stop-color="rgba(52.821, 52.821, 52.821, 1)" offset="0%"/><stop stop-color="rgba(53, 53, 53, 1)" offset="100%"/></linearGradient></defs><path style="transform:translate(0, 0px); opacity:1" fill="url(#sw-gradient-0)" d="M0,108L26.7,117C53.3,126,107,144,160,166.5C213.3,189,267,216,320,220.5C373.3,225,427,207,480,202.5C533.3,198,587,207,640,198C693.3,189,747,162,800,166.5C853.3,171,907,207,960,184.5C1013.3,162,1067,81,1120,63C1173.3,45,1227,90,1280,117C1333.3,144,1387,153,1440,148.5C1493.3,144,1547,126,1600,135C1653.3,144,1707,180,1760,162C1813.3,144,1867,72,1920,67.5C1973.3,63,2027,126,2080,162C2133.3,198,2187,207,2240,189C2293.3,171,2347,126,2400,90C2453.3,54,2507,27,2560,22.5C2613.3,18,2667,36,2720,54C2773.3,72,2827,90,2880,121.5C2933.3,153,2987,198,3040,189C3093.3,180,3147,117,3200,76.5C3253.3,36,3307,18,3360,36C3413.3,54,3467,108,3520,148.5C3573.3,189,3627,216,3680,207C3733.3,198,3787,153,3813,130.5L3840,108L3840,270L3813.3,270C3786.7,270,3733,270,3680,270C3626.7,270,3573,270,3520,270C3466.7,270,3413,270,3360,270C3306.7,270,3253,270,3200,270C3146.7,270,3093,270,3040,270C2986.7,270,2933,270,2880,270C2826.7,270,2773,270,2720,270C2666.7,270,2613,270,2560,270C2506.7,270,2453,270,2400,270C2346.7,270,2293,270,2240,270C2186.7,270,2133,270,2080,270C2026.7,270,1973,270,1920,270C1866.7,270,1813,270,1760,270C1706.7,270,1653,270,1600,270C1546.7,270,1493,270,1440,270C1386.7,270,1333,270,1280,270C1226.7,270,1173,270,1120,270C1066.7,270,1013,270,960,270C906.7,270,853,270,800,270C746.7,270,693,270,640,270C586.7,270,533,270,480,270C426.7,270,373,270,320,270C266.7,270,213,270,160,270C106.7,270,53,270,27,270L0,270Z"/></svg>