<?xml version="1.0" standalone="no"?>
<svg xmlns:xlink="http://www.w3.org/1999/xlink" id="wave" style="transform:rotate(180deg); transition: 0.3s" viewBox="0 0 1440 270" version="1.1" xmlns="http://www.w3.org/2000/svg"><defs><linearGradient id="sw-gradient-0" x1="0" x2="0" y1="1" y2="0"><stop stop-color="rgba(52.821, 52.821, 52.821, 1)" offset="0%"/><stop stop-color="rgba(53, 53, 53, 1)" offset="100%"/></linearGradient></defs><path style="transform:translate(0, 0px); opacity:1" fill="url(#sw-gradient-0)" d="M0,135L26.7,139.5C53.3,144,107,153,160,162C213.3,171,267,180,320,157.5C373.3,135,427,81,480,90C533.3,99,587,171,640,189C693.3,207,747,171,800,153C853.3,135,907,135,960,139.5C1013.3,144,1067,153,1120,144C1173.3,135,1227,108,1280,103.5C1333.3,99,1387,117,1440,135C1493.3,153,1547,171,1600,148.5C1653.3,126,1707,63,1760,67.5C1813.3,72,1867,144,1920,162C1973.3,180,2027,144,2080,148.5C2133.3,153,2187,198,2240,189C2293.3,180,2347,117,2400,81C2453.3,45,2507,36,2560,27C2613.3,18,2667,9,2720,31.5C2773.3,54,2827,108,2880,112.5C2933.3,117,2987,72,3040,67.5C3093.3,63,3147,99,3200,126C3253.3,153,3307,171,3360,166.5C3413.3,162,3467,135,3520,103.5C3573.3,72,3627,36,3680,18C3733.3,0,3787,0,3813,0L3840,0L3840,270L3813.3,270C3786.7,270,3733,270,3680,270C3626.7,270,3573,270,3520,270C3466.7,270,3413,270,3360,270C3306.7,270,3253,270,3200,270C3146.7,270,3093,270,3040,270C2986.7,270,2933,270,2880,270C2826.7,270,2773,270,2720,270C2666.7,270,2613,270,2560,270C2506.7,270,2453,270,2400,270C2346.7,270,2293,270,2240,270C2186.7,270,2133,270,2080,270C2026.7,270,1973,270,1920,270C1866.7,270,1813,270,1760,270C1706.7,270,1653,270,1600,270C1546.7,270,1493,270,1440,270C1386.7,270,1333,270,1280,270C1226.7,270,1173,270,1120,270C1066.7,270,1013,270,960,270C906.7,270,853,270,800,270C746.7,270,693,270,640,270C586.7,270,533,270,480,270C426.7,270,373,270,320,270C266.7,270,213,270,160,270C106.7,270,53,270,27,270L0,270Z"/></svg>