<?xml version="1.0" standalone="no"?>
<svg xmlns:xlink="http://www.w3.org/1999/xlink" id="wave" style="transform:rotate(0deg); transition: 0.3s" viewBox="0 0 1440 270" version="1.1" xmlns="http://www.w3.org/2000/svg"><defs><linearGradient id="sw-gradient-0" x1="0" x2="0" y1="1" y2="0"><stop stop-color="rgba(52.821, 52.821, 52.821, 1)" offset="0%"/><stop stop-color="rgba(53, 53, 53, 1)" offset="100%"/></linearGradient></defs><path style="transform:translate(0, 0px); opacity:1" fill="url(#sw-gradient-0)" d="M0,216L26.7,216C53.3,216,107,216,160,211.5C213.3,207,267,198,320,198C373.3,198,427,207,480,180C533.3,153,587,90,640,63C693.3,36,747,45,800,58.5C853.3,72,907,90,960,99C1013.3,108,1067,108,1120,112.5C1173.3,117,1227,126,1280,112.5C1333.3,99,1387,63,1440,54C1493.3,45,1547,63,1600,90C1653.3,117,1707,153,1760,157.5C1813.3,162,1867,135,1920,144C1973.3,153,2027,198,2080,207C2133.3,216,2187,189,2240,171C2293.3,153,2347,144,2400,117C2453.3,90,2507,45,2560,63C2613.3,81,2667,162,2720,189C2773.3,216,2827,189,2880,153C2933.3,117,2987,72,3040,81C3093.3,90,3147,153,3200,180C3253.3,207,3307,198,3360,180C3413.3,162,3467,135,3520,144C3573.3,153,3627,198,3680,207C3733.3,216,3787,189,3813,175.5L3840,162L3840,270L3813.3,270C3786.7,270,3733,270,3680,270C3626.7,270,3573,270,3520,270C3466.7,270,3413,270,3360,270C3306.7,270,3253,270,3200,270C3146.7,270,3093,270,3040,270C2986.7,270,2933,270,2880,270C2826.7,270,2773,270,2720,270C2666.7,270,2613,270,2560,270C2506.7,270,2453,270,2400,270C2346.7,270,2293,270,2240,270C2186.7,270,2133,270,2080,270C2026.7,270,1973,270,1920,270C1866.7,270,1813,270,1760,270C1706.7,270,1653,270,1600,270C1546.7,270,1493,270,1440,270C1386.7,270,1333,270,1280,270C1226.7,270,1173,270,1120,270C1066.7,270,1013,270,960,270C906.7,270,853,270,800,270C746.7,270,693,270,640,270C586.7,270,533,270,480,270C426.7,270,373,270,320,270C266.7,270,213,270,160,270C106.7,270,53,270,27,270L0,270Z"/></svg>